<svg width="226" height="52" viewBox="0 0 226 52" fill="none" xmlns="http://www.w3.org/2000/svg">
<path d="M20.6309 8.76305C20.6309 8.23201 21.0614 7.80151 21.5924 7.80151H22.5062C23.0372 7.80151 23.4677 8.23201 23.4677 8.76305V9.67685C23.4677 10.2079 23.0372 10.6384 22.5062 10.6384H21.5924C21.0614 10.6384 20.6309 10.2079 20.6309 9.67685V8.76305Z" fill="#1D6CEF"/>
<path d="M24.8867 4.50768C24.8867 3.97664 25.3172 3.54614 25.8483 3.54614H28.1805C28.7115 3.54614 29.142 3.97664 29.142 4.50768V6.83992C29.142 7.37097 28.7115 7.80146 28.1805 7.80146H25.8483C25.3172 7.80146 24.8867 7.37097 24.8867 6.83992V4.50768Z" fill="#1D6CEF"/>
<path d="M22.0508 0.961539C22.0508 0.430496 22.4813 0 23.0123 0H23.2169C23.7479 0 24.1784 0.430495 24.1784 0.961538V1.16612C24.1784 1.69716 23.7479 2.12766 23.2169 2.12766H23.0123C22.4813 2.12766 22.0508 1.69716 22.0508 1.16612V0.961539Z" fill="#1D6CEF"/>
<path fill-rule="evenodd" clip-rule="evenodd" d="M15.6549 14.5517H11.7668V10.9802H16.4791C17.9963 10.9802 19.2263 12.2102 19.2263 13.7275V18.542C19.2263 20.0593 17.9963 21.2892 16.4791 21.2892H12.5065L4.00852 29.7872L21.7068 47.4855L39.7269 29.7762L31.2399 21.2892H27.2674C25.7501 21.2892 24.5201 20.0593 24.5201 18.542V13.7275C24.5201 12.2102 25.7501 10.9802 27.2674 10.9802H31.9796V14.5517H28.0916V17.7178H31.5813C32.3099 17.7178 33.0087 18.0073 33.5239 18.5225L42.8401 27.8387C43.9196 28.9181 43.912 30.6707 42.8232 31.7407L23.6274 50.6055C22.5519 51.6624 20.8255 51.6549 19.7592 50.5886L0.900355 31.7298C-0.172515 30.6569 -0.172514 28.9175 0.900355 27.8446L10.2225 18.5225C10.7377 18.0073 11.4365 17.7178 12.1651 17.7178H15.6549V14.5517Z" fill="#60FFD2"/>
<path d="M30.1455 24.8228H14.2767C14.0318 24.8228 13.7961 24.9162 13.6177 25.0841L8.62675 29.7815C8.21756 30.1666 8.22439 30.819 8.64156 31.1955L21.7369 43.0132C22.1132 43.3528 22.6886 43.3419 23.0518 42.9883L35.2052 31.1547C35.5806 30.7892 35.5943 30.1904 35.2359 29.8082L30.847 25.1267C30.6652 24.9328 30.4113 24.8228 30.1455 24.8228Z" fill="#1D6CEF"/>
<path d="M55.3232 37.4999C55.2161 37.4999 55.1196 37.4678 55.0339 37.4035C54.9696 37.3178 54.9375 37.2214 54.9375 37.1142V15.3856C54.9375 15.2785 54.9696 15.1928 55.0339 15.1285C55.1196 15.0428 55.2161 14.9999 55.3232 14.9999H63.3589C64.9661 14.9999 66.3697 15.2892 67.5697 15.8678C68.7911 16.4249 69.7339 17.2178 70.3982 18.2464C71.0625 19.2749 71.3947 20.4642 71.3947 21.8142V30.6856C71.3947 32.0356 71.0625 33.2249 70.3982 34.2535C69.7339 35.2821 68.7911 36.0856 67.5697 36.6642C66.3697 37.2214 64.9661 37.4999 63.3589 37.4999H55.3232ZM59.4696 33.4499C59.4696 33.5571 59.5232 33.6106 59.6304 33.6106H63.5196C64.5054 33.6106 65.2982 33.2785 65.8982 32.6142C66.5196 31.9499 66.8411 31.0606 66.8625 29.9464V22.5535C66.8625 21.4392 66.5518 20.5499 65.9304 19.8856C65.3304 19.2214 64.5161 18.8892 63.4875 18.8892H59.6304C59.5232 18.8892 59.4696 18.9428 59.4696 19.0499V33.4499Z" fill="white"/>
<path d="M76.9606 19.1142C76.2321 19.1142 75.6214 18.8785 75.1285 18.4071C74.6571 17.9142 74.4214 17.3035 74.4214 16.5749C74.4214 15.8249 74.6571 15.2142 75.1285 14.7428C75.5999 14.2714 76.2106 14.0356 76.9606 14.0356C77.7106 14.0356 78.3214 14.2714 78.7928 14.7428C79.2642 15.2142 79.4999 15.8249 79.4999 16.5749C79.4999 17.3035 79.2535 17.9142 78.7606 18.4071C78.2892 18.8785 77.6892 19.1142 76.9606 19.1142ZM75.0321 37.4999C74.9249 37.4999 74.8285 37.4678 74.7428 37.4035C74.6785 37.3178 74.6464 37.2214 74.6464 37.1142V21.3321C74.6464 21.2249 74.6785 21.1392 74.7428 21.0749C74.8285 20.9892 74.9249 20.9464 75.0321 20.9464H78.7928C78.8999 20.9464 78.9856 20.9892 79.0499 21.0749C79.1356 21.1392 79.1785 21.2249 79.1785 21.3321V37.1142C79.1785 37.2214 79.1356 37.3178 79.0499 37.4035C78.9856 37.4678 78.8999 37.4999 78.7928 37.4999H75.0321Z" fill="white"/>
<path d="M89.2997 20.7214C90.6926 20.7214 91.9355 20.9678 93.0283 21.4606C94.1212 21.9321 94.9676 22.5856 95.5676 23.4214C96.189 24.2571 96.4997 25.1892 96.4997 26.2178V37.1142C96.4997 37.2214 96.4569 37.3178 96.3712 37.4035C96.3069 37.4678 96.2212 37.4999 96.114 37.4999H92.3533C92.2462 37.4999 92.1497 37.4678 92.064 37.4035C91.9997 37.3178 91.9676 37.2214 91.9676 37.1142V36.0535C91.9676 35.9892 91.9462 35.9464 91.9033 35.9249C91.8605 35.9035 91.8176 35.9249 91.7747 35.9892C90.8747 37.1678 89.4283 37.7571 87.4355 37.7571C85.764 37.7571 84.414 37.3499 83.3855 36.5356C82.3569 35.7214 81.8426 34.5214 81.8426 32.9356C81.8426 31.2856 82.4212 30.0106 83.5783 29.1106C84.7355 28.1892 86.3855 27.7285 88.5283 27.7285H91.8069C91.914 27.7285 91.9676 27.6749 91.9676 27.5678V26.8606C91.9676 26.1535 91.7533 25.6071 91.3247 25.2214C90.8962 24.8142 90.2533 24.6106 89.3962 24.6106C88.7319 24.6106 88.1747 24.7285 87.7247 24.9642C87.2962 25.1999 87.0176 25.5321 86.889 25.9606C86.8247 26.1964 86.6855 26.3035 86.4712 26.2821L82.5819 25.7678C82.3247 25.7249 82.2069 25.6285 82.2283 25.4785C82.314 24.5785 82.6676 23.7642 83.289 23.0356C83.9319 22.3071 84.7676 21.7392 85.7962 21.3321C86.8462 20.9249 88.014 20.7214 89.2997 20.7214ZM88.6569 34.3821C89.5783 34.3821 90.3605 34.1356 91.0033 33.6428C91.6462 33.1499 91.9676 32.5178 91.9676 31.7464V30.5892C91.9676 30.4821 91.914 30.4285 91.8069 30.4285H89.4926C88.5283 30.4285 87.7676 30.6106 87.2105 30.9749C86.6747 31.3392 86.4069 31.8535 86.4069 32.5178C86.4069 33.0964 86.6105 33.5571 87.0176 33.8999C87.4247 34.2214 87.9712 34.3821 88.6569 34.3821Z" fill="white"/>
<path d="M118.014 20.7214C119.685 20.7214 120.992 21.2249 121.935 22.2321C122.878 23.2392 123.349 24.6535 123.349 26.4749V37.1142C123.349 37.2214 123.306 37.3178 123.221 37.4035C123.156 37.4678 123.071 37.4999 122.964 37.4999H119.203C119.096 37.4999 118.999 37.4678 118.914 37.4035C118.849 37.3178 118.817 37.2214 118.817 37.1142V27.4714C118.817 26.5928 118.592 25.8964 118.142 25.3821C117.692 24.8678 117.092 24.6106 116.342 24.6106C115.592 24.6106 114.981 24.8678 114.51 25.3821C114.039 25.8964 113.803 26.5821 113.803 27.4392V37.1142C113.803 37.2214 113.76 37.3178 113.674 37.4035C113.61 37.4678 113.524 37.4999 113.417 37.4999H109.689C109.581 37.4999 109.485 37.4678 109.399 37.4035C109.335 37.3178 109.303 37.2214 109.303 37.1142V27.4714C109.303 26.6142 109.067 25.9285 108.596 25.4142C108.124 24.8785 107.514 24.6106 106.764 24.6106C106.078 24.6106 105.499 24.8142 105.028 25.2214C104.578 25.6285 104.31 26.1964 104.224 26.9249V37.1142C104.224 37.2214 104.181 37.3178 104.096 37.4035C104.031 37.4678 103.946 37.4999 103.839 37.4999H100.078C99.9708 37.4999 99.8743 37.4678 99.7886 37.4035C99.7243 37.3178 99.6922 37.2214 99.6922 37.1142V21.3642C99.6922 21.2571 99.7243 21.1714 99.7886 21.1071C99.8743 21.0214 99.9708 20.9785 100.078 20.9785H103.839C103.946 20.9785 104.031 21.0214 104.096 21.1071C104.181 21.1714 104.224 21.2571 104.224 21.3642V22.6178C104.224 22.6821 104.246 22.7249 104.289 22.7464C104.331 22.7678 104.374 22.7464 104.417 22.6821C105.296 21.3749 106.656 20.7214 108.499 20.7214C109.571 20.7214 110.503 20.9464 111.296 21.3964C112.11 21.8464 112.731 22.4892 113.16 23.3249C113.224 23.4535 113.299 23.4535 113.385 23.3249C113.856 22.4464 114.489 21.7928 115.281 21.3642C116.096 20.9356 117.006 20.7214 118.014 20.7214Z" fill="white"/>
<path d="M133.732 37.7571C131.932 37.7571 130.39 37.2856 129.104 36.3428C127.818 35.3999 126.94 34.1142 126.468 32.4856C126.168 31.4785 126.018 30.3856 126.018 29.2071C126.018 27.9428 126.168 26.8071 126.468 25.7999C126.961 24.2142 127.85 22.9714 129.136 22.0714C130.422 21.1714 131.965 20.7214 133.765 20.7214C135.522 20.7214 137.022 21.1714 138.265 22.0714C139.507 22.9499 140.386 24.1821 140.9 25.7678C141.243 26.8392 141.415 27.9642 141.415 29.1428C141.415 30.2999 141.265 31.3821 140.965 32.3892C140.493 34.0606 139.615 35.3785 138.329 36.3428C137.065 37.2856 135.532 37.7571 133.732 37.7571ZM133.732 33.8678C134.44 33.8678 135.04 33.6535 135.532 33.2249C136.025 32.7964 136.379 32.2071 136.593 31.4571C136.765 30.7714 136.85 30.0214 136.85 29.2071C136.85 28.3071 136.765 27.5464 136.593 26.9249C136.357 26.1964 135.993 25.6285 135.5 25.2214C135.007 24.8142 134.407 24.6106 133.7 24.6106C132.972 24.6106 132.361 24.8142 131.868 25.2214C131.397 25.6285 131.054 26.1964 130.84 26.9249C130.668 27.4392 130.582 28.1999 130.582 29.2071C130.582 30.1714 130.657 30.9214 130.807 31.4571C131.022 32.2071 131.375 32.7964 131.868 33.2249C132.382 33.6535 133.004 33.8678 133.732 33.8678Z" fill="white"/>
<path d="M152.942 20.7214C154.657 20.7214 156.039 21.2464 157.089 22.2964C158.139 23.3464 158.664 24.7714 158.664 26.5714V37.1142C158.664 37.2214 158.621 37.3178 158.535 37.4035C158.471 37.4678 158.385 37.4999 158.278 37.4999H154.517C154.41 37.4999 154.314 37.4678 154.228 37.4035C154.164 37.3178 154.132 37.2214 154.132 37.1142V27.5035C154.132 26.6464 153.885 25.9499 153.392 25.4142C152.921 24.8785 152.289 24.6106 151.496 24.6106C150.703 24.6106 150.06 24.8785 149.567 25.4142C149.096 25.9499 148.86 26.6464 148.86 27.5035V37.1142C148.86 37.2214 148.817 37.3178 148.732 37.4035C148.667 37.4678 148.582 37.4999 148.475 37.4999H144.714C144.607 37.4999 144.51 37.4678 144.425 37.4035C144.36 37.3178 144.328 37.2214 144.328 37.1142V21.3642C144.328 21.2571 144.36 21.1714 144.425 21.1071C144.51 21.0214 144.607 20.9785 144.714 20.9785H148.475C148.582 20.9785 148.667 21.0214 148.732 21.1071C148.817 21.1714 148.86 21.2571 148.86 21.3642V22.4892C148.86 22.5535 148.882 22.5964 148.925 22.6178C148.967 22.6392 149 22.6285 149.021 22.5856C149.9 21.3428 151.207 20.7214 152.942 20.7214Z" fill="white"/>
<path d="M172.066 15.3856C172.066 15.2785 172.098 15.1928 172.162 15.1285C172.248 15.0428 172.344 14.9999 172.451 14.9999H176.212C176.319 14.9999 176.405 15.0428 176.469 15.1285C176.555 15.1928 176.598 15.2785 176.598 15.3856V37.1142C176.598 37.2214 176.555 37.3178 176.469 37.4035C176.405 37.4678 176.319 37.4999 176.212 37.4999H172.451C172.344 37.4999 172.248 37.4678 172.162 37.4035C172.098 37.3178 172.066 37.2214 172.066 37.1142V36.0535C172.066 35.9892 172.044 35.9571 172.001 35.9571C171.958 35.9356 171.916 35.9464 171.873 35.9892C170.973 37.1678 169.741 37.7571 168.176 37.7571C166.676 37.7571 165.38 37.3392 164.287 36.5035C163.216 35.6678 162.444 34.5214 161.973 33.0642C161.608 31.9499 161.426 30.6535 161.426 29.1749C161.426 27.6535 161.619 26.3249 162.005 25.1892C162.498 23.8178 163.269 22.7356 164.319 21.9428C165.391 21.1285 166.708 20.7214 168.273 20.7214C169.816 20.7214 171.016 21.2571 171.873 22.3285C171.916 22.3928 171.958 22.4142 172.001 22.3928C172.044 22.3714 172.066 22.3285 172.066 22.2642V15.3856ZM171.391 32.4856C171.819 31.6928 172.033 30.6106 172.033 29.2392C172.033 27.8035 171.798 26.6785 171.326 25.8642C170.833 25.0285 170.116 24.6106 169.173 24.6106C168.166 24.6106 167.405 25.0285 166.891 25.8642C166.355 26.6999 166.087 27.8356 166.087 29.2714C166.087 30.5571 166.312 31.6285 166.762 32.4856C167.298 33.4071 168.091 33.8678 169.141 33.8678C170.105 33.8678 170.855 33.4071 171.391 32.4856Z" fill="white"/>
<path d="M180.404 37.4999C180.297 37.4999 180.2 37.4678 180.114 37.4035C180.05 37.3178 180.018 37.2214 180.018 37.1142V15.3856C180.018 15.2785 180.05 15.1928 180.114 15.1285C180.2 15.0428 180.297 14.9999 180.404 14.9999H184.164C184.272 14.9999 184.357 15.0428 184.422 15.1285C184.507 15.1928 184.55 15.2785 184.55 15.3856V37.1142C184.55 37.2214 184.507 37.3178 184.422 37.4035C184.357 37.4678 184.272 37.4999 184.164 37.4999H180.404Z" fill="white"/>
<path d="M192.899 23.9595C193.964 23.9595 194.889 24.1515 195.675 24.5356C196.478 24.9023 197.089 25.4261 197.508 26.1071C197.945 26.7706 198.163 27.5301 198.163 28.3856V37.238C198.163 37.4126 198.076 37.4999 197.901 37.4999H195.911C195.736 37.4999 195.649 37.4126 195.649 37.238V36.2952C195.649 36.2079 195.605 36.1904 195.518 36.2428C195.064 36.7142 194.505 37.0809 193.842 37.3428C193.196 37.5872 192.471 37.7095 191.668 37.7095C190.376 37.7095 189.302 37.3864 188.446 36.7404C187.608 36.0769 187.189 35.0817 187.189 33.7547C187.189 32.3928 187.661 31.3277 188.603 30.5595C189.564 29.7737 190.9 29.3809 192.611 29.3809H195.544C195.614 29.3809 195.649 29.346 195.649 29.2761V28.569C195.649 27.8007 195.422 27.2071 194.968 26.788C194.531 26.3515 193.859 26.1333 192.951 26.1333C192.218 26.1333 191.615 26.2817 191.144 26.5785C190.69 26.8579 190.411 27.242 190.306 27.7309C190.253 27.9055 190.149 27.9841 189.992 27.9666L187.87 27.6785C187.696 27.6436 187.617 27.5737 187.634 27.469C187.774 26.4388 188.324 25.6007 189.284 24.9547C190.245 24.2912 191.449 23.9595 192.899 23.9595ZM192.218 35.588C193.143 35.588 193.946 35.3436 194.627 34.8547C195.308 34.3658 195.649 33.746 195.649 32.9952V31.4499C195.649 31.3801 195.614 31.3452 195.544 31.3452H193.082C192.052 31.3452 191.231 31.546 190.62 31.9476C190.009 32.3491 189.703 32.9079 189.703 33.6237C189.703 34.2698 189.93 34.7587 190.384 35.0904C190.856 35.4222 191.467 35.588 192.218 35.588Z" fill="white"/>
<path d="M212.322 27.6261C212.601 28.5166 212.741 29.5729 212.741 30.7952C212.741 32.1047 212.575 33.2222 212.243 34.1476C211.859 35.2825 211.248 36.1642 210.41 36.7928C209.589 37.4039 208.55 37.7095 207.293 37.7095C206.682 37.7095 206.114 37.5872 205.591 37.3428C205.067 37.0983 204.613 36.7579 204.229 36.3214C204.194 36.2864 204.159 36.2777 204.124 36.2952C204.107 36.3126 204.098 36.3388 204.098 36.3737V37.238C204.098 37.4126 204.01 37.4999 203.836 37.4999H201.845C201.671 37.4999 201.584 37.4126 201.584 37.238V19.4285C201.584 19.2539 201.671 19.1666 201.845 19.1666H203.836C204.01 19.1666 204.098 19.2539 204.098 19.4285V25.269C204.098 25.3039 204.107 25.3301 204.124 25.3476C204.159 25.365 204.194 25.3563 204.229 25.3214C204.613 24.8849 205.067 24.5531 205.591 24.3261C206.132 24.0817 206.699 23.9595 207.293 23.9595C208.603 23.9595 209.676 24.2825 210.514 24.9285C211.353 25.5745 211.955 26.4737 212.322 27.6261ZM209.545 34.0952C209.982 33.2745 210.2 32.192 210.2 30.8476C210.2 29.4158 209.921 28.2634 209.362 27.3904C208.856 26.5523 208.079 26.1333 207.031 26.1333C206.053 26.1333 205.311 26.5785 204.805 27.469C204.351 28.2722 204.124 29.3896 204.124 30.8214C204.124 32.2531 204.334 33.3531 204.753 34.1214C205.276 35.0642 206.045 35.5356 207.057 35.5356C208.21 35.5356 209.039 35.0555 209.545 34.0952Z" fill="white"/>
</svg>
